<svg width="16" height="16" viewBox="0 0 16 16" fill="none" xmlns="http://www.w3.org/2000/svg" data-testid="icon" color=""><path d="M16 2.66667H0V12.6667H16V2.66667Z" fill="#009C3B"></path><path d="M1.12012 7.65667L7.9997 11.9267L14.8793 7.65667L7.9997 3.38667L1.12012 7.65667Z" fill="#FFDF00"></path><path d="M5.62294 7.27667L10.1884 8.59667C10.1256 8.73667 10.0418 8.86667 9.94755 8.98667C9.79048 9.19667 9.59153 9.38667 9.36116 9.53667C8.96325 9.80667 8.48158 9.94667 7.98943 9.94667C7.35069 9.94667 6.74336 9.70667 6.28263 9.27667C5.83236 8.84667 5.58105 8.25667 5.58105 7.64667C5.58105 7.62667 5.58105 7.61667 5.58105 7.59667C5.602 7.48667 5.61247 7.38667 5.62294 7.27667Z" fill="#002776"></path><path d="M10.4084 7.64666C10.4084 7.77666 10.3979 7.89666 10.377 8.01666L5.81152 6.70666C6.26179 5.74666 7.34032 5.19666 8.4398 5.39666C9.58116 5.59666 10.4084 6.54666 10.4084 7.64666Z" fill="#002776"></path><path d="M10.377 8.02667C10.3456 8.22667 10.2827 8.41667 10.199 8.59667L5.62305 7.27667C5.64399 7.12667 5.69635 6.97667 5.7487 6.82667C5.76964 6.78667 5.78011 6.73667 5.80106 6.69667L10.377 8.02667Z" fill="white"></path></svg>