<svg width="16" height="16" viewBox="0 0 16 16" fill="none" xmlns="http://www.w3.org/2000/svg" data-testid="icon" color=""><path d="M16 2.66663H0V13.3334H16V2.66663Z" fill="#F0F0F0"></path><path d="M16 3.99986H0V5.33308H16V3.99986Z" fill="#D80027"></path><path d="M16 6.66664H0V7.99986H16V6.66664Z" fill="#D80027"></path><path d="M16 9.33315H0V10.6663H16V9.33315Z" fill="#D80027"></path><path d="M16 11.9999H0V13.3331H16V11.9999Z" fill="#D80027"></path><path d="M8 2.66663H0V8.41024H8V2.66663Z" fill="#2E52B2"></path><path d="M3.11884 5.01949L2.98999 5.41586H2.57324L2.91046 5.6607L2.78162 6.05705L3.11884 5.8122L3.45584 6.05705L3.32702 5.6607L3.66424 5.41586H3.24746L3.11884 5.01949Z" fill="#F0F0F0"></path><path d="M3.24746 6.84616L3.11884 6.44981L2.98999 6.84616H2.57324L2.91046 7.09103L2.78162 7.48738L3.11884 7.2425L3.45584 7.48738L3.32702 7.09103L3.66424 6.84616H3.24746Z" fill="#F0F0F0"></path><path d="M1.48675 6.84616L1.35809 6.44981L1.22925 6.84616H0.8125L1.14972 7.09103L1.02087 7.48738L1.35809 7.2425L1.69512 7.48738L1.56631 7.09103L1.90346 6.84616H1.48675Z" fill="#F0F0F0"></path><path d="M1.35809 5.01949L1.22925 5.41586H0.8125L1.14972 5.6607L1.02087 6.05705L1.35809 5.8122L1.69512 6.05705L1.56631 5.6607L1.90346 5.41586H1.48675L1.35809 5.01949Z" fill="#F0F0F0"></path><path d="M3.11884 3.58905L2.98999 3.98545H2.57324L2.91046 4.23032L2.78162 4.62666L3.11884 4.38179L3.45584 4.62666L3.32702 4.23032L3.66424 3.98545H3.24746L3.11884 3.58905Z" fill="#F0F0F0"></path><path d="M1.35809 3.58905L1.22925 3.98545H0.8125L1.14972 4.23032L1.02087 4.62666L1.35809 4.38179L1.69512 4.62666L1.56631 4.23032L1.90346 3.98545H1.48675L1.35809 3.58905Z" fill="#F0F0F0"></path><path d="M4.88054 5.01949L4.75173 5.41586H4.33496L4.67216 5.6607L4.54337 6.05705L4.88054 5.8122L5.21762 6.05705L5.08877 5.6607L5.426 5.41586H5.00924L4.88054 5.01949Z" fill="#F0F0F0"></path><path d="M5.00924 6.84616L4.88054 6.44981L4.75173 6.84616H4.33496L4.67216 7.09103L4.54337 7.48738L4.88054 7.2425L5.21762 7.48738L5.08877 7.09103L5.426 6.84616H5.00924Z" fill="#F0F0F0"></path><path d="M6.76992 6.84616L6.64127 6.44981L6.51242 6.84616H6.0957L6.43286 7.09103L6.30405 7.48738L6.64127 7.2425L6.9783 7.48738L6.84945 7.09103L7.18667 6.84616H6.76992Z" fill="#F0F0F0"></path><path d="M6.64127 5.01949L6.51242 5.41586H6.0957L6.43286 5.6607L6.30405 6.05705L6.64127 5.8122L6.9783 6.05705L6.84945 5.6607L7.18667 5.41586H6.76992L6.64127 5.01949Z" fill="#F0F0F0"></path><path d="M4.88054 3.58905L4.75173 3.98545H4.33496L4.67216 4.23032L4.54337 4.62666L4.88054 4.38179L5.21762 4.62666L5.08877 4.23032L5.426 3.98545H5.00924L4.88054 3.58905Z" fill="#F0F0F0"></path><path d="M6.64127 3.58905L6.51242 3.98545H6.0957L6.43286 4.23032L6.30405 4.62666L6.64127 4.38179L6.9783 4.62666L6.84945 4.23032L7.18667 3.98545H6.76992L6.64127 3.58905Z" fill="#F0F0F0"></path></svg>