<svg width="24" height="24" viewBox="0 0 24 24" fill="none" xmlns="http://www.w3.org/2000/svg" data-testid="icon" color="#FF7A00"><path d="M4 10.5C4 5.80558 7.80558 2 12.5 2C17.1944 2 21 5.80558 21 10.5C21 15.1944 17.1944 19 12.5 19H3" stroke="#FF7A00" stroke-width="2" stroke-linecap="round"></path><path d="M6 16L3 19L6 22" stroke="#FF7A00" stroke-width="2" stroke-linecap="round" stroke-linejoin="round"></path><path d="M14.5 8.5H12.5H11.5C10.9477 8.5 10.5 8.94772 10.5 9.5V9.5C10.5 10.0523 10.9477 10.5 11.5 10.5H12.5H13.5C14.0523 10.5 14.5 10.9477 14.5 11.5V11.5C14.5 12.0523 14.0523 12.5 13.5 12.5H10.5" stroke="#FF7A00" stroke-width="2" stroke-linecap="round" stroke-linejoin="round"></path><path d="M12.5 8.5L12.5 7.5" stroke="#FF7A00" stroke-width="2" stroke-linecap="round" stroke-linejoin="round"></path><path d="M12.5 13.5L12.5 12.5" stroke="#FF7A00" stroke-width="2" stroke-linecap="round" stroke-linejoin="round"></path></svg>