<svg width="24" height="24" viewBox="0 0 24 24" fill="none" xmlns="http://www.w3.org/2000/svg" data-testid="icon" color="#FF7A00"><path d="M21.9506 12.9507C21.4489 18.004 17.1853 21.9507 12 21.9507C6.47715 21.9507 2 17.4735 2 11.9507C2 6.76534 5.94668 2.50178 11 2.00006" stroke="#FF7A00" stroke-width="2" stroke-linecap="round" stroke-linejoin="round"></path><path d="M15 9H12H10.5C9.67157 9 9 9.67157 9 10.5V10.5C9 11.3284 9.67157 12 10.5 12H12H13.5C14.3284 12 15 12.6716 15 13.5V13.5C15 14.3284 14.3284 15 13.5 15H9" stroke="#FF7A00" stroke-width="2" stroke-linecap="round" stroke-linejoin="round"></path><path d="M12 9L12 7" stroke="#FF7A00" stroke-width="2" stroke-linecap="round" stroke-linejoin="round"></path><path d="M12 17L12 15" stroke="#FF7A00" stroke-width="2" stroke-linecap="round" stroke-linejoin="round"></path><path d="M22 5L19 2L16 5" stroke="#FF7A00" stroke-width="2" stroke-linecap="round" stroke-linejoin="round"></path><path d="M19 2V8" stroke="#FF7A00" stroke-width="2" stroke-linecap="round" stroke-linejoin="round"></path></svg>