<svg width="77" height="13" viewBox="0 0 85 13" fill="none" xmlns="http://www.w3.org/2000/svg"><path d="M6.38932 10.5239L2.20746 4.51283L1.61837 3.62062L1.59248 3.63364L1.60542 4.70169V10.5304H0V0.670453H1.56658L5.47657 6.42751L6.06565 7.30669L6.09155 7.29367L6.06565 6.23864V0.66394H7.65813V10.5239H6.38932Z" fill="#1D1D1B"></path><path d="M13.8209 9.6842L13.782 9.67118C13.2965 10.2899 12.5003 10.6546 11.5616 10.6546C10.0986 10.6546 9.12762 9.8405 9.12762 8.07561C9.12762 6.59076 10.1181 5.62691 11.9501 5.62691C12.565 5.62691 13.1412 5.73111 13.5814 5.87439V5.28175C13.5814 4.29836 13.1088 3.9011 11.9371 3.9011C11.0891 3.9011 10.4741 4.03135 9.75555 4.35046L9.61314 2.96981C10.3835 2.62465 11.2574 2.45532 12.2414 2.45532C14.4359 2.45532 15.2321 3.39963 15.2321 5.52922V10.5113H13.9633L13.8209 9.67118V9.6842ZM13.5879 7.04012C13.3936 6.94895 12.9081 6.8187 12.2543 6.8187C11.1797 6.8187 10.7007 7.25504 10.7007 8.05608C10.7007 8.97434 11.2509 9.30648 12.0213 9.30648C12.8434 9.30648 13.5879 8.77896 13.5879 8.19935V7.04012Z" fill="#1D1D1B"></path><path d="M19 10.6804C18.0613 10.6804 17.2068 10.485 16.553 10.0877L16.7472 8.668C17.3622 9.07829 18.2749 9.28669 18.9935 9.28669C19.9451 9.28669 20.3529 8.85035 20.3529 8.27074C20.3529 6.77286 16.5206 7.54785 16.5206 4.8126C16.5206 3.43195 17.4722 2.47461 19.3949 2.47461C20.1781 2.47461 20.9226 2.63091 21.5764 2.92397L21.434 4.31765C20.7802 4.04412 19.971 3.90736 19.369 3.90736C18.5857 3.90736 18.1131 4.21996 18.1131 4.74747C18.1131 6.14115 21.8936 5.36616 21.8936 8.11444C21.8936 9.65139 21.0326 10.6804 18.9935 10.6804H19Z" fill="#1D1D1B"></path><path d="M28.3214 10.5238L28.1401 9.7749L28.1013 9.76187C27.6158 10.3545 26.9102 10.6801 25.9068 10.6801C23.8417 10.6801 22.8901 9.36461 22.8901 6.53818C22.8901 3.90713 23.8547 2.46136 25.8938 2.46136C26.6901 2.46136 27.4216 2.73488 27.9589 3.2624L27.9848 3.23635L27.9589 2.18132V0.221057L29.6161 0.129883V10.5173H28.3214V10.5238ZM27.9524 4.72771C27.6676 4.29137 27.0914 4.00482 26.3729 4.00482C25.0782 4.00482 24.6056 4.68863 24.6056 6.60982C24.6056 8.53101 25.0264 9.29297 26.3599 9.29297C27.2597 9.29297 27.7452 8.86966 27.9524 8.50496V4.72771Z" fill="#1D1D1B"></path><path d="M35.6706 9.6842L35.6317 9.67118C35.1462 10.2899 34.35 10.6546 33.4113 10.6546C31.9483 10.6546 30.9773 9.8405 30.9773 8.07561C30.9773 6.59076 31.9677 5.62691 33.7997 5.62691C34.4147 5.62691 34.9908 5.73111 35.431 5.87439V5.28175C35.431 4.29836 34.9585 3.9011 33.7868 3.9011C32.9388 3.9011 32.3238 4.03135 31.6052 4.35046L31.4628 2.96981C32.2331 2.62465 33.1071 2.45532 34.091 2.45532C36.2855 2.45532 37.0818 3.39963 37.0818 5.52922V10.5113H35.813L35.6706 9.67118V9.6842ZM35.4375 7.04012C35.2433 6.94895 34.7578 6.8187 34.104 6.8187C33.0294 6.8187 32.5503 7.25504 32.5503 8.05608C32.5503 8.97434 33.1006 9.30648 33.8709 9.30648C34.6931 9.30648 35.4375 8.77896 35.4375 8.19935V7.04012Z" fill="#1D1D1B"></path><path d="M43.4056 12.5234V11.0516L43.4315 9.98353L43.4056 9.9705C42.9071 10.4068 42.2533 10.6413 41.4441 10.6413C39.5992 10.6413 38.3563 9.46904 38.3563 6.57749C38.3563 3.68593 39.4179 2.47461 41.483 2.47461C42.4475 2.47461 43.2373 2.78721 43.7551 3.39287H43.794L44.0011 2.61788H45.0628V12.5104L43.4056 12.5234ZM43.4056 4.75399C43.1855 4.3437 42.5834 4.01807 41.839 4.01807C40.5572 4.01807 40.0847 4.57163 40.0847 6.59702C40.0847 8.62241 40.622 9.20202 41.8519 9.20202C42.7517 9.20202 43.3149 8.76569 43.4056 8.37494V4.7605V4.75399Z" fill="#1D1D1B"></path><path d="M55.3043 9.68376L55.2655 10.5239H49.5818V0.66394H50.4428V9.68376H55.3043Z" fill="#1D1D1B"></path><path d="M57.4321 1.17256C57.0372 1.17256 56.8171 1.04231 56.8171 0.618993C56.8171 0.260805 57.0372 0.0654297 57.4321 0.0654297C57.827 0.0654297 58.0471 0.260805 58.0471 0.618993C58.0471 1.00323 57.827 1.17256 57.4321 1.17256ZM57.0243 10.5245V2.80719L57.8205 2.74207V10.5245H57.0243Z" fill="#1D1D1B"></path><path d="M62.0286 10.6803C61.1159 10.6803 60.2484 10.4328 59.6788 9.97041L59.8082 9.24752C60.3714 9.72293 61.2324 9.98343 62.0157 9.98343C63.3233 9.98343 63.8736 9.31265 63.8736 8.42043C63.8736 6.34294 59.7176 7.23516 59.7176 4.67574C59.7176 3.41232 60.6174 2.63733 62.2811 2.63733C63.0126 2.63733 63.6923 2.7806 64.3073 3.08669L64.2296 3.78353C63.5888 3.49698 62.909 3.34719 62.2682 3.34719C61.1677 3.34719 60.475 3.84865 60.475 4.63667C60.475 6.57088 64.618 5.60703 64.618 8.34228C64.618 9.74898 63.8218 10.6803 62.0286 10.6803Z" fill="#1D1D1B"></path><path d="M67.7255 3.40596V8.65503C67.7255 9.58632 68.211 9.95753 68.9814 9.95753C69.2015 9.95753 69.4798 9.91846 69.6352 9.85333L69.6999 10.485C69.4928 10.5762 69.1108 10.6413 68.7742 10.6413C67.5702 10.6413 66.9293 10.0096 66.9293 8.68108V3.40596H65.7252V2.76122H66.9422L67.0976 0.722804L67.7255 0.644653V2.76122H69.7517V3.40596H67.7255Z" fill="#1D1D1B"></path><path d="M70.6584 6.38202C70.6584 3.94634 71.6942 2.63733 73.7333 2.63733C75.4747 2.63733 76.6853 3.70538 76.6853 6.21269C76.6853 6.32992 76.6723 6.49924 76.6594 6.60995H71.4676C71.5065 9.09773 72.3286 9.93784 74.1735 9.93784C74.9827 9.93784 75.6495 9.74247 76.3033 9.38428L76.4069 10.0811C75.7401 10.4654 74.9957 10.6868 74.0959 10.6868C71.6359 10.6868 70.6584 9.38428 70.6584 6.38853V6.38202ZM75.9537 6.04337C75.9279 4.0831 75.0151 3.34719 73.7333 3.34719C72.2186 3.34719 71.5389 4.25243 71.4612 6.04337H75.9602H75.9537Z" fill="#1D1D1B"></path><path d="M83.6438 10.5242L83.5143 9.61897L83.4755 9.60594C82.99 10.3158 82.1678 10.687 81.0803 10.687C78.9376 10.687 78.1025 9.42359 78.1025 6.64927C78.1025 3.87494 78.9893 2.63756 81.0932 2.63756C82.0319 2.63756 82.8993 2.98273 83.4431 3.647L83.469 3.63398L83.4431 2.57895V0.0651253L84.2393 0V10.5177H83.6373L83.6438 10.5242ZM83.4496 4.46106C83.0676 3.81633 82.2714 3.39301 81.2939 3.39301C79.5655 3.39301 78.9181 4.33733 78.9181 6.6688C78.9181 9.00028 79.5202 9.99669 81.281 9.99669C82.5757 9.99669 83.2036 9.35195 83.4496 8.86352V4.46106Z" fill="#1D1D1B"></path></svg>