<svg width="24" height="24" viewBox="0 0 24 24" fill="none" xmlns="http://www.w3.org/2000/svg" data-testid="icon" color="#FF7A00"><path d="M12.0002 23L11.5787 22.8384C0.515145 18.5981 2.0664 6.46856 2.08331 6.34647L2.1571 5.81764C2.1571 5.81764 8 4 12.0002 1C16 4 21.8429 5.81764 21.8429 5.81764L21.9167 6.34647C21.9336 6.46857 23.4848 18.5981 12.4216 22.8384L12.0002 23Z" stroke="#FF7A00" stroke-width="2" stroke-linecap="round" stroke-linejoin="round"></path><path d="M9.9998 11.0001L9.9999 8.9999C9.99995 7.89537 10.8954 7 11.9999 7C13.1045 7 14 7.89549 13.9999 9.0001L13.9998 11.0001M9 16.0001H15C15.5523 16.0001 16 15.5523 16 15.0001V12.0001C16 11.4478 15.5523 11.0001 15 11.0001H9C8.44772 11.0001 8 11.4478 8 12.0001V15.0001C8 15.5523 8.44772 16.0001 9 16.0001Z" stroke="#FF7A00" stroke-width="2" stroke-linejoin="round"></path></svg>