<svg xmlns="http://www.w3.org/2000/svg" class="undefined icon icon--facilidades fill-orange--base" viewBox="0 0 24 24" data-testid="icon" style="width: 51px; transform: rotate(0deg); height: 51px; fill: #ff7a00"><g><path d="M2 20a1 1 0 011-1h18a1 1 0 110 2H3a1 1 0 01-1-1z"></path><path fill-rule="evenodd" d="M22.533 4.133c-.748-1.026-2.193-1.414-3.428-.92l-5.807 2.325-2.564-1.303a4.136 4.136 0 00-3.564-.071L4.863 5.219c-.756.346-.78 1.325-.04 1.7l2.694 1.37-.593.326-3.536-1.078c-.613-.187-1.287.024-1.645.516l-.502.69c-.422.578-.276 1.358.332 1.775l2.323 1.594-.645.355c-.8.438-.935 1.448-.276 2.05l.742.68a1.534 1.534 0 001.724.211l4.94-2.583V17h1.505c1.802 0 3.359-1.152 3.736-2.763l.385-1.643a.82.82 0 00.099-.292l.042-.312.335-1.428 5.167-2.836c1.361-.748 1.763-2.384.883-3.593zM15.754 7.83c.401.046.713.313.807.65l4.106-2.253c.426-.234.552-.746.276-1.124-.234-.321-.686-.443-1.073-.288l-6.217 2.489-3.767 1.723-2.733 1.5L3.13 9.3l-.05.068 4.235 2.906-2.557 1.404.052.047 5.572-2.913v-.804c0-.483.428-.874.955-.874.459 0 .842.296.934.69l.021-.01v5.398c.72-.143 1.302-.66 1.462-1.342l.509-2.172.425-3.11c.065-.478.542-.818 1.066-.758zM9.45 7.272l1.75-.8-1.394-.71a2.068 2.068 0 00-1.782-.035l-.849.389L9.45 7.272z" clip-rule="evenodd"></path></g><defs><clipPath id="clip0_698_70"><path d="M0 0h24v24H0z"></path></clipPath></defs></svg>