<svg width="24" height="24" viewBox="0 0 24 24" fill="none" xmlns="http://www.w3.org/2000/svg" data-testid="icon" color="#FF7A00"><path d="M12 2L12.4472 1.10557C12.1657 0.964809 11.8343 0.964809 11.5528 1.10557L12 2ZM13 17C13 16.4477 12.5523 16 12 16C11.4477 16 11 16.4477 11 17H13ZM11 23C11 23.5523 11.4477 24 12 24C12.5523 24 13 23.5523 13 23H11ZM4 22L3.30715 22.7211C3.61223 23.0142 4.06879 23.0836 4.44721 22.8944L4 22ZM6 13C6.55228 13 7 12.5523 7 12C7 11.4477 6.55228 11 6 11V13ZM20 22L19.5528 22.8944C19.9312 23.0836 20.3878 23.0142 20.6929 22.7211L20 22ZM18 11C17.4477 11 17 11.4477 17 12C17 12.5523 17.4477 13 18 13V11ZM11.5528 2.89443C12.5549 3.39548 13.8988 4.0753 15.0101 5.29767C16.0939 6.48994 17 8.25057 17 11H19C19 7.74943 17.9061 5.51006 16.4899 3.95233C15.1012 2.4247 13.4451 1.60452 12.4472 1.10557L11.5528 2.89443ZM17 11C17 13.8868 16.5192 16.0302 16.0513 17.4338C15.8172 18.1363 15.5857 18.6551 15.4181 18.9903C15.3343 19.1579 15.2664 19.2797 15.2222 19.3555C15.2 19.3934 15.1838 19.4199 15.1745 19.4348C15.1698 19.4423 15.1668 19.4469 15.1657 19.4487C15.1651 19.4496 15.165 19.4497 15.1654 19.4491C15.1656 19.4489 15.1659 19.4484 15.1663 19.4478C15.1665 19.4474 15.1668 19.4471 15.167 19.4467C15.1672 19.4465 15.1674 19.4461 15.1675 19.446C15.1677 19.4457 15.1679 19.4453 16 20C16.8321 20.5547 16.8323 20.5543 16.8326 20.5539C16.8327 20.5538 16.8329 20.5534 16.8331 20.5531C16.8335 20.5525 16.834 20.5518 16.8344 20.5511C16.8353 20.5498 16.8364 20.5482 16.8375 20.5465C16.8398 20.543 16.8426 20.5387 16.8458 20.5337C16.8522 20.5238 16.8605 20.5108 16.8705 20.4948C16.8904 20.4629 16.9172 20.4191 16.9497 20.3632C17.0148 20.2516 17.1032 20.0921 17.2069 19.8847C17.4143 19.4699 17.6828 18.8637 17.9487 18.0662C18.4808 16.4698 19 14.1132 19 11H17ZM16 19H8V21H16V19ZM8.92848 19.6286C8.27755 18.0013 7 14.8091 7 10H5C5 15.1909 6.38911 18.6654 7.07152 20.3714L8.92848 19.6286ZM7 10C7 5.67105 10.4032 3.91643 12.4472 2.89443L11.5528 1.10557C9.59679 2.08357 5 4.32895 5 10H7ZM11 17V23H13V17H11ZM7.55279 19.1056L3.55279 21.1056L4.44721 22.8944L8.44721 20.8944L7.55279 19.1056ZM4.69285 21.2789C4.42014 21.0169 4.01242 20.581 3.66413 19.7957C3.3124 19.0026 3 17.8042 3 16H1C1 18.0393 1.35426 19.5206 1.83587 20.6065C2.32091 21.7002 2.91319 22.3425 3.30715 22.7211L4.69285 21.2789ZM3 16C3 15.01 3.5177 14.2785 4.2218 13.7548C4.57522 13.4919 4.95842 13.297 5.30142 13.1695C5.66082 13.036 5.91184 13 6 13V11C5.58816 11 5.08918 11.1148 4.60483 11.2948C4.10408 11.4808 3.54978 11.7621 3.0282 12.15C1.9823 12.9279 1 14.1964 1 16H3ZM15.5528 20.8944L19.5528 22.8944L20.4472 21.1056L16.4472 19.1056L15.5528 20.8944ZM20.6929 22.7211C21.0868 22.3425 21.6791 21.7002 22.1641 20.6065C22.6457 19.5206 23 18.0393 23 16H21C21 17.8042 20.6876 19.0026 20.3359 19.7957C19.9876 20.581 19.5799 21.0169 19.3071 21.2789L20.6929 22.7211ZM23 16C23 14.1964 22.0177 12.9279 20.9718 12.15C20.4502 11.7621 19.8959 11.4808 19.3952 11.2948C18.9108 11.1148 18.4118 11 18 11V13C18.0882 13 18.3392 13.036 18.6986 13.1695C19.0416 13.297 19.4248 13.4919 19.7782 13.7548C20.4823 14.2785 21 15.01 21 16H23ZM13 10C13 10.5523 12.5523 11 12 11V13C13.6569 13 15 11.6569 15 10H13ZM12 11C11.4477 11 11 10.5523 11 10H9C9 11.6569 10.3431 13 12 13V11ZM11 10C11 9.44772 11.4477 9 12 9V7C10.3431 7 9 8.34315 9 10H11ZM12 9C12.5523 9 13 9.44772 13 10H15C15 8.34315 13.6569 7 12 7V9Z" fill="#FF7A00"></path></svg>